HIERARCHY
ROOT mixamorig1:Hips
{
	OFFSET -0.000023 99.754364 3.007850
	CHANNELS 6 Xposition Yposition Zposition Xrotation Yrotation Zrotation
	JOINT mixamorig1:Spine
	{
		OFFSET 0.000000 9.717224 -1.180211
		CHANNELS 3 Xrotation Yrotation Zrotation
		JOINT mixamorig1:Spine1
		{
			OFFSET 0.000000 11.336823 -1.376936
			CHANNELS 3 Xrotation Yrotation Zrotation
			JOINT mixamorig1:Spine2
			{
				OFFSET 0.000000 12.956345 -1.573657
				CHANNELS 3 Xrotation Yrotation Zrotation
				JOINT mixamorig1:Neck
				{
					OFFSET 0.000000 14.575974 -1.770441
					CHANNELS 3 Xrotation Yrotation Zrotation
					JOINT mixamorig1:Head
					{
						OFFSET 0.000000 6.720200 1.972157
						CHANNELS 3 Xrotation Yrotation Zrotation
						JOINT mixamorig1:HeadTop_End
						{
							OFFSET 0.000000 20.999847 6.162758
							CHANNELS 3 Xrotation Yrotation Zrotation
							End Site
							{
								OFFSET 0.000000 21.885452 -0.000004
							}
						}
					}
				}
				JOINT mixamorig1:LeftShoulder
				{
					OFFSET 6.140116 12.877853 -1.799548
					CHANNELS 3 Xrotation Yrotation Zrotation
					JOINT mixamorig1:LeftArm
					{
						OFFSET 12.545031 -3.431427 -0.058010
						CHANNELS 3 Xrotation Yrotation Zrotation
						JOINT mixamorig1:LeftForeArm
						{
							OFFSET 25.447281 -1.876373 -1.505625
							CHANNELS 3 Xrotation Yrotation Zrotation
							JOINT mixamorig1:LeftHand
							{
								OFFSET 23.367504 0.877640 0.971305
								CHANNELS 3 Xrotation Yrotation Zrotation
								JOINT mixamorig1:LeftHandThumb1
								{
									OFFSET 3.575478 -1.761887 3.039434
									CHANNELS 3 Xrotation Yrotation Zrotation
									JOINT mixamorig1:LeftHandThumb2
									{
										OFFSET 2.860405 -1.409454 2.431552
										CHANNELS 3 Xrotation Yrotation Zrotation
										JOINT mixamorig1:LeftHandThumb3
										{
											OFFSET 2.578941 -1.801514 1.750709
											CHANNELS 3 Xrotation Yrotation Zrotation
											JOINT mixamorig1:LeftHandThumb4
											{
												OFFSET 2.408989 -1.461151 1.064221
												CHANNELS 3 Xrotation Yrotation Zrotation
												End Site
												{
													OFFSET 2.176476 -1.503357 1.440013
												}
											}
										}
									}
								}
								JOINT mixamorig1:LeftHandIndex1
								{
									OFFSET 11.357018 -1.306473 4.439679
									CHANNELS 3 Xrotation Yrotation Zrotation
									JOINT mixamorig1:LeftHandIndex2
									{
										OFFSET 3.215240 -0.390930 0.624045
										CHANNELS 3 Xrotation Yrotation Zrotation
										JOINT mixamorig1:LeftHandIndex3
										{
											OFFSET 2.938980 -0.735489 0.560646
											CHANNELS 3 Xrotation Yrotation Zrotation
											JOINT mixamorig1:LeftHandIndex4
											{
												OFFSET 2.552437 -0.779205 0.483288
												CHANNELS 3 Xrotation Yrotation Zrotation
												End Site
												{
													OFFSET 2.555870 -0.777603 0.467434
												}
											}
										}
									}
								}
								JOINT mixamorig1:LeftHandMiddle1
								{
									OFFSET 12.195602 -0.657242 2.108765
									CHANNELS 3 Xrotation Yrotation Zrotation
									JOINT mixamorig1:LeftHandMiddle2
									{
										OFFSET 3.379944 -0.547394 0.236206
										CHANNELS 3 Xrotation Yrotation Zrotation
										JOINT mixamorig1:LeftHandMiddle3
										{
											OFFSET 3.043900 -0.829651 0.195068
											CHANNELS 3 Xrotation Yrotation Zrotation
											JOINT mixamorig1:LeftHandMiddle4
											{
												OFFSET 2.806625 -0.600723 0.188473
												CHANNELS 3 Xrotation Yrotation Zrotation
												End Site
												{
													OFFSET 2.806618 -0.600739 0.188510
												}
											}
										}
									}
								}
								JOINT mixamorig1:LeftHandRing1
								{
									OFFSET 12.563576 -0.458878 -0.154891
									CHANNELS 3 Xrotation Yrotation Zrotation
									JOINT mixamorig1:LeftHandRing2
									{
										OFFSET 2.596565 -0.829819 0.032336
										CHANNELS 3 Xrotation Yrotation Zrotation
										JOINT mixamorig1:LeftHandRing3
										{
											OFFSET 2.548286 -0.608398 0.044838
											CHANNELS 3 Xrotation Yrotation Zrotation
											JOINT mixamorig1:LeftHandRing4
											{
												OFFSET 2.167870 -0.507812 0.038965
												CHANNELS 3 Xrotation Yrotation Zrotation
												End Site
												{
													OFFSET 2.167732 -0.508163 0.042114
												}
											}
										}
									}
								}
								JOINT mixamorig1:LeftHandPinky1
								{
									OFFSET 11.341652 -0.310532 -2.253323
									CHANNELS 3 Xrotation Yrotation Zrotation
									JOINT mixamorig1:LeftHandPinky2
									{
										OFFSET 2.648827 -0.669128 -0.120024
										CHANNELS 3 Xrotation Yrotation Zrotation
										JOINT mixamorig1:LeftHandPinky3
										{
											OFFSET 2.075249 -0.703857 -0.105192
											CHANNELS 3 Xrotation Yrotation Zrotation
											JOINT mixamorig1:LeftHandPinky4
											{
												OFFSET 1.850784 -0.684036 -0.097376
												CHANNELS 3 Xrotation Yrotation Zrotation
												End Site
												{
													OFFSET 1.850731 -0.683411 -0.102854
												}
											}
										}
									}
								}
							}
						}
					}
				}
				JOINT mixamorig1:RightShoulder
				{
					OFFSET -6.140133 12.877823 -1.741391
					CHANNELS 3 Xrotation Yrotation Zrotation
					JOINT mixamorig1:RightArm
					{
						OFFSET -12.545002 -3.431366 0.058123
						CHANNELS 3 Xrotation Yrotation Zrotation
						JOINT mixamorig1:RightForeArm
						{
							OFFSET -25.447330 -1.876465 -1.671036
							CHANNELS 3 Xrotation Yrotation Zrotation
							JOINT mixamorig1:RightHand
							{
								OFFSET -23.367435 0.877640 0.912149
								CHANNELS 3 Xrotation Yrotation Zrotation
								JOINT mixamorig1:RightHandThumb1
								{
									OFFSET -3.655281 -1.787811 3.110017
									CHANNELS 3 Xrotation Yrotation Zrotation
									JOINT mixamorig1:RightHandThumb2
									{
										OFFSET -2.924309 -1.430252 2.488113
										CHANNELS 3 Xrotation Yrotation Zrotation
										JOINT mixamorig1:RightHandThumb3
										{
											OFFSET -2.528549 -1.776962 1.706924
											CHANNELS 3 Xrotation Yrotation Zrotation
											JOINT mixamorig1:RightHandThumb4
											{
												OFFSET -2.443375 -1.162323 1.073468
												CHANNELS 3 Xrotation Yrotation Zrotation
												End Site
												{
													OFFSET -2.204521 -1.202744 1.472025
												}
											}
										}
									}
								}
								JOINT mixamorig1:RightHandIndex1
								{
									OFFSET -11.888382 -1.247833 4.755188
									CHANNELS 3 Xrotation Yrotation Zrotation
									JOINT mixamorig1:RightHandIndex2
									{
										OFFSET -3.042244 -0.516434 0.442817
										CHANNELS 3 Xrotation Yrotation Zrotation
										JOINT mixamorig1:RightHandIndex3
										{
											OFFSET -2.738869 -0.708374 0.392164
											CHANNELS 3 Xrotation Yrotation Zrotation
											JOINT mixamorig1:RightHandIndex4
											{
												OFFSET -2.432571 -0.620773 0.348507
												CHANNELS 3 Xrotation Yrotation Zrotation
												End Site
												{
													OFFSET -2.433441 -0.620270 0.343348
												}
											}
										}
									}
								}
								JOINT mixamorig1:RightHandMiddle1
								{
									OFFSET -12.008347 -0.748550 2.098396
									CHANNELS 3 Xrotation Yrotation Zrotation
									JOINT mixamorig1:RightHandMiddle2
									{
										OFFSET -3.442291 -0.415817 0.287318
										CHANNELS 3 Xrotation Yrotation Zrotation
										JOINT mixamorig1:RightHandMiddle3
										{
											OFFSET -3.106178 -0.837677 0.240102
											CHANNELS 3 Xrotation Yrotation Zrotation
											JOINT mixamorig1:RightHandMiddle4
											{
												OFFSET -2.855728 -0.604996 0.227592
												CHANNELS 3 Xrotation Yrotation Zrotation
												End Site
												{
													OFFSET -2.855972 -0.604736 0.225131
												}
											}
										}
									}
								}
								JOINT mixamorig1:RightHandRing1
								{
									OFFSET -12.328026 -0.608994 -0.015787
									CHANNELS 3 Xrotation Yrotation Zrotation
									JOINT mixamorig1:RightHandRing2
									{
										OFFSET -2.763496 -0.569153 -0.029507
										CHANNELS 3 Xrotation Yrotation Zrotation
										JOINT mixamorig1:RightHandRing3
										{
											OFFSET -2.573975 -0.772354 -0.042469
											CHANNELS 3 Xrotation Yrotation Zrotation
											JOINT mixamorig1:RightHandRing4
											{
												OFFSET -2.323860 -0.456833 -0.023427
												CHANNELS 3 Xrotation Yrotation Zrotation
												End Site
												{
													OFFSET -2.323814 -0.457275 -0.019363
												}
											}
										}
									}
								}
								JOINT mixamorig1:RightHandPinky1
								{
									OFFSET -11.463135 -0.329407 -2.202621
									CHANNELS 3 Xrotation Yrotation Zrotation
									JOINT mixamorig1:RightHandPinky2
									{
										OFFSET -2.569016 -0.599854 -0.108848
										CHANNELS 3 Xrotation Yrotation Zrotation
										JOINT mixamorig1:RightHandPinky3
										{
											OFFSET -2.016190 -0.737000 -0.102787
											CHANNELS 3 Xrotation Yrotation Zrotation
											JOINT mixamorig1:RightHandPinky4
											{
												OFFSET -1.796242 -0.576553 -0.085258
												CHANNELS 3 Xrotation Yrotation Zrotation
												End Site
												{
													OFFSET -1.796211 -0.576279 -0.087722
												}
											}
										}
									}
								}
							}
						}
					}
				}
			}
		}
	}
	JOINT mixamorig1:LeftUpLeg
	{
		OFFSET 8.078197 -5.402374 -0.535866
		CHANNELS 3 Xrotation Yrotation Zrotation
		JOINT mixamorig1:LeftLeg
		{
			OFFSET 3.743073 -42.540520 -2.695453
			CHANNELS 3 Xrotation Yrotation Zrotation
			JOINT mixamorig1:LeftFoot
			{
				OFFSET 3.359008 -41.940849 -2.882240
				CHANNELS 3 Xrotation Yrotation Zrotation
				JOINT mixamorig1:LeftToeBase
				{
					OFFSET 1.133368 -9.116436 13.321875
					CHANNELS 3 Xrotation Yrotation Zrotation
					JOINT mixamorig1:LeftToe_End
					{
						OFFSET 0.591574 -0.054443 6.177378
						CHANNELS 3 Xrotation Yrotation Zrotation
						End Site
						{
							OFFSET 0.591574 -0.054443 6.177376
						}
					}
				}
			}
		}
	}
	JOINT mixamorig1:RightUpLeg
	{
		OFFSET -8.078202 -5.402405 -0.751774
		CHANNELS 3 Xrotation Yrotation Zrotation
		JOINT mixamorig1:RightLeg
		{
			OFFSET -3.743069 -42.540482 -2.464511
			CHANNELS 3 Xrotation Yrotation Zrotation
			JOINT mixamorig1:RightFoot
			{
				OFFSET -3.359002 -41.940781 -2.968969
				CHANNELS 3 Xrotation Yrotation Zrotation
				JOINT mixamorig1:RightToeBase
				{
					OFFSET -1.133408 -9.116797 13.416489
					CHANNELS 3 Xrotation Yrotation Zrotation
					JOINT mixamorig1:RightToe_End
					{
						OFFSET -0.591589 -0.054615 6.151403
						CHANNELS 3 Xrotation Yrotation Zrotation
						End Site
						{
							OFFSET -0.591589 -0.054615 6.151402
						}
					}
				}
			}
		}
	}
}
MOTION
Frames: 4
Frame Time: 0.041667
-37.573254 117.580643 80.614510 4.454564 27.565906 -15.996540 15.421628 18.604071 13.577946 0.000003 0.000004 -0.000003 -7.774406 4.636424 0.391286 -2.459965 -6.646054 -9.202832 -7.539754 -11.552392 8.444701 0.000005 -0.000008 0.000001 0.000107 0.000099 0.000054 28.620041 -29.817710 -79.416051 59.822881 -66.923239 98.064571 -21.177210 2.906601 0.543398 0.000020 0.000085 -0.000391 -0.000059 -0.000245 0.000516 0.000015 0.000007 0.000022 -0.000009 -0.000006 -0.000003 -0.000055 0.000179 0.000269 5.369740 -1.148610 -7.697184 0.000003 -0.000006 0.000006 -0.000000 0.000000 0.000009 0.000024 0.000589 0.000300 0.958822 -0.151984 -2.905110 0.000002 0.000003 -0.000005 -0.000007 0.000001 -0.000003 0.000118 0.000166 0.000101 0.715490 -0.155956 -10.277757 0.000007 -0.000004 -0.000000 -0.000003 -0.000002 0.000004 0.000084 -0.000115 0.000057 -0.725286 0.237343 -2.221939 -0.000003 0.000012 -0.000011 0.000003 -0.000004 0.000010 0.000119 -0.000108 -0.000062 13.086967 47.467195 62.150651 -81.546353 120.775243 36.217443 -10.877476 -1.519198 -0.145436 -0.000012 -0.000358 -0.000113 -0.000088 0.000387 -0.000466 0.000021 -0.000015 -0.000001 -0.000002 -0.000013 -0.000002 -0.000045 -0.000112 0.000218 5.369728 1.149033 7.696321 0.000003 0.000003 -0.000001 0.000011 -0.000003 -0.000004 -0.000125 0.000165 0.000052 0.958828 0.151860 2.904981 0.000001 -0.000005 0.000005 -0.000005 -0.000002 -0.000003 0.000036 0.000237 -0.000175 0.715632 0.155528 10.277778 -0.000004 -0.000000 0.000003 0.000002 0.000003 -0.000008 -0.000147 0.000334 -0.000210 -0.725008 -0.236852 2.221420 0.000001 -0.000001 -0.000012 0.000003 0.000003 -0.000005 -60.803136 4.556471 1.653452 56.128852 -0.678039 0.506053 2.036620 -7.332192 -0.118931 0.000003 -0.000010 -0.000001 -0.000001 -0.000002 0.000004 10.094060 -0.950163 4.824097 25.348473 1.149046 0.011427 -1.807948 -6.248660 -1.429189 0.000002 0.000011 -0.000002 -0.000001 0.000006 -0.000004 
-29.416815 119.361206 99.048027 6.112502 29.446052 -16.465528 12.567272 20.107218 12.150603 -0.000001 -0.000005 0.000000 -6.438232 5.270387 -0.840987 -2.642643 -7.210355 -9.620417 -6.425688 -12.601886 9.958231 -0.000000 0.000000 -0.000001 0.000103 0.000100 0.000060 32.226602 -29.578380 -79.893898 61.965566 -66.904018 100.528978 -20.536893 2.822560 0.511496 0.000031 0.000079 -0.000390 -0.000055 -0.000246 0.000508 0.000003 0.000003 0.000014 -0.000010 0.000000 0.000008 -0.000048 0.000176 0.000280 5.369743 -1.148605 -7.697189 -0.000002 -0.000008 -0.000003 0.000001 -0.000003 -0.000000 0.000029 0.000587 0.000320 0.958806 -0.151981 -2.905110 0.000001 0.000000 -0.000002 0.000002 -0.000004 -0.000006 0.000113 0.000164 0.000111 0.715481 -0.155946 -10.277752 -0.000003 0.000001 -0.000008 0.000009 -0.000001 0.000012 0.000092 -0.000112 0.000083 -0.725264 0.237338 -2.221937 -0.000001 -0.000004 -0.000001 -0.000002 -0.000010 0.000006 0.000120 -0.000101 -0.000067 16.700364 50.757547 60.472432 -80.266785 121.473576 34.577232 -9.866878 -1.380335 -0.118602 -0.000003 -0.000384 -0.000118 -0.000097 0.000374 -0.000464 0.000014 -0.000001 -0.000009 0.000003 -0.000008 0.000010 -0.000048 -0.000124 0.000222 5.369733 1.149030 7.696304 -0.000005 0.000001 -0.000002 0.000001 0.000003 -0.000006 -0.000133 0.000159 0.000052 0.958828 0.151851 2.904977 -0.000006 -0.000003 -0.000000 -0.000002 -0.000003 0.000001 0.000037 0.000227 -0.000175 0.715636 0.155533 10.277782 -0.000000 0.000000 -0.000001 0.000001 0.000002 -0.000003 -0.000158 0.000322 -0.000209 -0.725017 -0.236856 2.221408 0.000009 0.000002 -0.000005 -0.000006 0.000004 0.000003 -55.769331 12.168183 -1.070949 42.042051 -0.420451 0.296114 8.230568 -10.291311 0.774516 0.000002 0.000001 0.000004 0.000001 0.000007 -0.000002 12.804284 1.692098 4.211080 24.723847 0.837812 -0.048287 18.340281 2.594458 -0.996404 0.000003 0.000002 0.000007 0.000001 0.000003 0.000002 
-21.836500 118.967789 117.400505 6.132088 30.569980 -16.483668 12.685330 19.593356 10.066317 -0.000002 0.000001 -0.000001 -6.185358 5.144979 -0.793594 -2.516190 -6.758239 -9.081003 -6.177645 -11.842288 10.929727 -0.000003 0.000004 -0.000000 0.000106 0.000084 0.000059 33.237067 -28.998108 -82.618173 65.927069 -66.773951 105.083410 -20.611370 2.832343 0.515161 0.000035 0.000083 -0.000376 -0.000045 -0.000256 0.000510 0.000014 -0.000005 0.000007 0.000001 -0.000003 0.000006 -0.000056 0.000178 0.000277 5.369746 -1.148622 -7.697173 -0.000006 -0.000006 -0.000005 -0.000001 -0.000013 0.000003 0.000020 0.000592 0.000315 0.958815 -0.151985 -2.905103 0.000007 -0.000010 -0.000015 0.000003 0.000001 -0.000000 0.000112 0.000162 0.000101 0.715485 -0.155961 -10.277754 0.000002 -0.000016 0.000002 -0.000001 -0.000005 0.000006 0.000086 -0.000108 0.000074 -0.725281 0.237332 -2.221931 0.000004 -0.000002 -0.000000 -0.000009 -0.000010 0.000006 0.000115 -0.000098 -0.000065 20.840263 53.717256 60.039234 -82.190760 120.438843 37.051054 -7.585342 -1.062915 -0.070825 -0.000010 -0.000373 -0.000112 -0.000083 0.000380 -0.000469 0.000009 -0.000009 -0.000004 -0.000011 -0.000014 0.000004 -0.000057 -0.000123 0.000215 5.369732 1.149027 7.696307 0.000007 0.000001 0.000001 -0.000013 -0.000003 -0.000001 -0.000151 0.000155 0.000051 0.958836 0.151851 2.904979 0.000008 0.000001 0.000001 -0.000009 -0.000001 0.000000 0.000024 0.000230 -0.000174 0.715635 0.155533 10.277785 -0.000007 -0.000000 -0.000000 -0.000003 -0.000001 0.000005 -0.000167 0.000324 -0.000209 -0.725023 -0.236854 2.221403 0.000009 0.000000 -0.000004 0.000004 -0.000000 0.000003 -49.405104 15.940255 -2.770519 38.318738 0.015192 0.294641 14.310935 -7.306386 1.330760 0.000001 0.000004 0.000004 0.000000 0.000001 0.000005 8.164415 2.363670 4.009174 37.703153 0.808111 -0.233028 23.645738 5.613588 -2.032440 0.000004 -0.000001 -0.000004 -0.000001 0.000001 -0.000003 
-15.134883 117.102554 135.872742 6.016506 32.735888 -17.609496 13.477080 15.666004 7.379964 -0.000002 -0.000005 -0.000000 -5.932190 3.975810 0.576215 -2.251752 -5.747386 -8.458125 -7.526796 -10.086308 10.861402 0.000002 0.000004 -0.000003 0.000107 0.000094 0.000055 30.433393 -30.438325 -85.598232 71.041576 -66.414212 110.962147 -19.620953 2.702091 0.467353 0.000031 0.000088 -0.000374 -0.000051 -0.000239 0.000511 0.000009 0.000008 0.000014 -0.000004 0.000004 0.000004 -0.000061 0.000174 0.000282 5.369739 -1.148616 -7.697184 -0.000003 0.000000 -0.000001 0.000003 0.000000 -0.000013 0.000024 0.000593 0.000314 0.958808 -0.151995 -2.905101 -0.000005 -0.000010 -0.000011 0.000001 0.000002 -0.000003 0.000113 0.000160 0.000106 0.715482 -0.155949 -10.277757 0.000001 -0.000001 0.000006 0.000001 -0.000003 0.000008 0.000072 -0.000112 0.000082 -0.725283 0.237345 -2.221931 0.000005 -0.000010 0.000002 0.000006 -0.000012 0.000002 0.000119 -0.000098 -0.000067 23.845838 54.666245 62.218420 -87.287871 118.205139 43.419465 -6.701506 -0.939622 -0.055037 -0.000014 -0.000371 -0.000110 -0.000087 0.000380 -0.000460 0.000017 -0.000001 -0.000010 -0.000006 -0.000009 0.000005 -0.000051 -0.000123 0.000217 5.369727 1.149029 7.696311 -0.000003 0.000003 -0.000001 0.000005 -0.000001 -0.000002 -0.000139 0.000162 0.000053 0.958826 0.151852 2.904977 0.000009 -0.000002 -0.000003 0.000001 0.000002 0.000002 0.000026 0.000228 -0.000172 0.715634 0.155531 10.277795 -0.000000 -0.000003 -0.000003 0.000003 0.000000 -0.000001 -0.000149 0.000325 -0.000205 -0.725010 -0.236858 2.221408 0.000009 0.000005 -0.000005 0.000009 0.000000 0.000002 -42.234492 14.999099 -5.325329 41.831186 0.308756 0.366607 9.009072 -6.186984 0.616686 0.000002 0.000010 0.000008 -0.000007 -0.000004 0.000010 -0.640049 -2.807165 1.473693 56.438167 0.605820 -0.518790 20.206836 -1.116223 -0.081527 0.000001 0.000002 -0.000008 0.000001 0.000006 0.000001 
